<svg xmlns="http://www.w3.org/2000/svg" viewBox="0 0 1366 232">
    <defs>
        <style>.cls-1,.cls-6{fill:none;stroke-miterlimit:10;}.cls-1{stroke:#000;stroke-width:2.08px;}.cls-2{fill:#95c11e;}.cls-3{fill:#fff;}.cls-4{fill:#0098b1;}.cls-5{fill:#3d3a48;}.cls-6{stroke:#3d3a48;stroke-linecap:round;stroke-width:2.87px;}</style>
    </defs>
    <title>logoinder02</title>
    <g id="lineaAtras">
        <path class="cls-1" d="M65.26,127.44,67,93.12c.58-11.28,10-20.25,21.68-20.61L953.64,45.67"/>
    </g>
    <g id="cuadroTitulo">
        <path class="cls-2" d="M23,241V118.08c0-12.94,9.91-23.55,22.42-24L1298.94,48.5c13.15-.48,24.06,10.41,24.06,24V241Z"/>
        <path class="cls-3" d="M486.51,181a10.91,10.91,0,0,0,1.48,5.33q2.48,3.84,8.76,3.84a14.86,14.86,0,0,0,5.12-.84q4.47-1.63,4.47-5.83,0-3.15-1.89-4.49a18.67,18.67,0,0,0-6-2.29l-5-1.18a22.13,22.13,0,0,1-7-2.55,8.17,8.17,0,0,1-3.53-7.22,11.32,11.32,0,0,1,3.47-8.54q3.47-3.34,9.83-3.34a16.65,16.65,0,0,1,9.95,2.93q4.09,2.93,4.09,9.36H505.4a10,10,0,0,0-1.6-4.75q-2.27-3-7.72-3-4.4,0-6.32,1.94a6.23,6.23,0,0,0-1.92,4.52,4.45,4.45,0,0,0,2.27,4.15,32.32,32.32,0,0,0,6.74,2.1l5.2,1.23a15.6,15.6,0,0,1,5.8,2.44,9.29,9.29,0,0,1,3.53,7.85q0,6.41-4.51,9.17a19.67,19.67,0,0,1-10.48,2.76q-7,0-10.9-3.68t-3.86-9.9Z"/>
        <path class="cls-3" d="M518.08,154.87h4.77v5.36h-4.77Zm0,10.59h4.77v28h-4.77Z"/>
        <path class="cls-3" d="M532.72,184.63a6.82,6.82,0,0,0,1.2,3.63q1.81,2.29,6.27,2.29a9.34,9.34,0,0,0,4.68-1.14,3.79,3.79,0,0,0,2-3.53,3,3,0,0,0-1.61-2.76,19.38,19.38,0,0,0-4.08-1.34l-3.78-.95a18.53,18.53,0,0,1-5.35-2,6,6,0,0,1-3.07-5.31,8.09,8.09,0,0,1,2.89-6.46,11.57,11.57,0,0,1,7.77-2.47q6.39,0,9.21,3.73a8.08,8.08,0,0,1,1.72,5.1h-4.43a5.39,5.39,0,0,0-1.15-2.9q-1.65-1.85-5.73-1.85a7,7,0,0,0-4.12,1,3.18,3.18,0,0,0-1.4,2.7,3.31,3.31,0,0,0,1.84,2.93,11.09,11.09,0,0,0,3.13,1.15l3.16.76a24.62,24.62,0,0,1,6.9,2.39,6.35,6.35,0,0,1,2.73,5.7,8.67,8.67,0,0,1-2.86,6.49q-2.86,2.73-8.71,2.73-6.3,0-8.93-2.85a10.76,10.76,0,0,1-2.81-7.05Z"/>
        <path class="cls-3" d="M557.54,157.47h4.74v7.85h4.45v3.86h-4.45v18.36a2,2,0,0,0,1,2,4.16,4.16,0,0,0,1.82.29l.73,0c.26,0,.56,0,.91-.09v3.76a10.43,10.43,0,0,1-1.68.34,16,16,0,0,1-1.89.11q-3.28,0-4.45-1.69a7.58,7.58,0,0,1-1.17-4.4V169.19h-3.78v-3.86h3.78Z"/>
        <path class="cls-3" d="M588.65,166.1a10.6,10.6,0,0,1,4.22,3.64,12.68,12.68,0,0,1,1.86,5,33,33,0,0,1,.41,6.2H574.86a12.24,12.24,0,0,0,2,6.89,6.61,6.61,0,0,0,5.76,2.59,7.37,7.37,0,0,0,5.81-2.45,8.38,8.38,0,0,0,1.72-3.3h4.61a9.85,9.85,0,0,1-1.21,3.45,12.4,12.4,0,0,1-2.3,3.11A10.78,10.78,0,0,1,586,194a15.73,15.73,0,0,1-3.8.42,11.59,11.59,0,0,1-8.77-3.82q-3.6-3.82-3.6-10.7t3.62-11a11.88,11.88,0,0,1,9.47-4.23A12.5,12.5,0,0,1,588.65,166.1Zm1.68,11a12.43,12.43,0,0,0-1.32-4.91q-1.91-3.41-6.38-3.42a7,7,0,0,0-5.37,2.35,9,9,0,0,0-2.3,6Z"/>
        <path class="cls-3" d="M601.09,165.33h4.64v4a15.64,15.64,0,0,1,3-3,9,9,0,0,1,5.26-1.6,8.23,8.23,0,0,1,5.37,1.65,8.65,8.65,0,0,1,2.08,2.78,9.68,9.68,0,0,1,8.41-4.44q5.63,0,7.66,4.1a13.5,13.5,0,0,1,1.09,5.94v18.73h-4.87V173.92q0-2.81-1.39-3.86A5.49,5.49,0,0,0,629,169a6.72,6.72,0,0,0-4.75,1.87q-2,1.87-2,6.23v16.37h-4.77V175.1a9.62,9.62,0,0,0-.68-4.18q-1.07-2-4-2a6.85,6.85,0,0,0-4.83,2.08q-2.18,2.08-2.17,7.51v14.92h-4.69Z"/>
        <path class="cls-3" d="M660.47,176.43a2.54,2.54,0,0,0,2.16-1.36,4.22,4.22,0,0,0,.31-1.82,3.87,3.87,0,0,0-1.7-3.52,9,9,0,0,0-4.87-1.09q-3.66,0-5.2,2a6.68,6.68,0,0,0-1.12,3.3h-4.38q.13-5.22,3.34-7.26a13.59,13.59,0,0,1,7.45-2,15,15,0,0,1,8,1.89,6.43,6.43,0,0,1,3,5.88v16.21a2.09,2.09,0,0,0,.3,1.18,1.44,1.44,0,0,0,1.26.45q.31,0,.7,0c.26,0,.54-.07.83-.12v3.49a13,13,0,0,1-1.67.39,12.08,12.08,0,0,1-1.56.08,3.85,3.85,0,0,1-3.52-1.73,6.72,6.72,0,0,1-.81-2.6,12,12,0,0,1-4.12,3.28,12.65,12.65,0,0,1-5.91,1.39,8.76,8.76,0,0,1-6.34-2.37,7.91,7.91,0,0,1-2.46-5.94,7.68,7.68,0,0,1,2.42-6.06,11.49,11.49,0,0,1,6.35-2.65Zm-9.87,12.77a5.48,5.48,0,0,0,3.52,1.18,10.63,10.63,0,0,0,4.79-1.15,6.5,6.5,0,0,0,3.91-6.27v-3.8a7.93,7.93,0,0,1-2.21.92,18.32,18.32,0,0,1-2.65.53l-2.83.37a10.86,10.86,0,0,0-3.83,1.08,4.19,4.19,0,0,0-2.17,3.93A3.9,3.9,0,0,0,650.6,189.21Z"/>
        <path class="cls-3" d="M705.33,166.19a12.63,12.63,0,0,1,2.83,2.76V154.74h4.51v38.72h-4.22v-3.91a10.15,10.15,0,0,1-3.87,3.76,11,11,0,0,1-5.11,1.16,10.3,10.3,0,0,1-8-4q-3.4-4-3.4-10.52a18.33,18.33,0,0,1,3.1-10.65,10.11,10.11,0,0,1,8.86-4.51A9.8,9.8,0,0,1,705.33,166.19Zm-10.46,21.09a6.6,6.6,0,0,0,6.06,3,6.36,6.36,0,0,0,5.32-2.82q2.09-2.82,2.09-8.1t-2.15-7.89a6.68,6.68,0,0,0-5.31-2.56,7,7,0,0,0-5.71,2.73q-2.19,2.73-2.19,8A14.09,14.09,0,0,0,694.86,187.29Z"/>
        <path class="cls-3" d="M736.9,166.1a10.61,10.61,0,0,1,4.22,3.64,12.72,12.72,0,0,1,1.86,5,33.05,33.05,0,0,1,.41,6.2H723.11a12.23,12.23,0,0,0,2,6.89,6.61,6.61,0,0,0,5.76,2.59,7.37,7.37,0,0,0,5.81-2.45,8.38,8.38,0,0,0,1.72-3.3H743a9.85,9.85,0,0,1-1.21,3.45,12.4,12.4,0,0,1-2.3,3.11,10.78,10.78,0,0,1-5.25,2.84,15.71,15.71,0,0,1-3.8.42,11.59,11.59,0,0,1-8.77-3.82q-3.6-3.82-3.6-10.7t3.62-11a11.88,11.88,0,0,1,9.47-4.23A12.51,12.51,0,0,1,736.9,166.1Zm1.68,11a12.43,12.43,0,0,0-1.32-4.91q-1.91-3.41-6.38-3.42a7,7,0,0,0-5.37,2.35,9,9,0,0,0-2.3,6Z"/>
        <path class="cls-3" d="M764.15,154.87h4.77v5.36h-4.77Zm0,10.59h4.77v28h-4.77Z"/>
        <path class="cls-3" d="M776,165.33h4.45v4a12.51,12.51,0,0,1,4.19-3.55,11.1,11.1,0,0,1,4.92-1.08q5.94,0,8,4.18a15,15,0,0,1,1.15,6.54v18H794V175.73a9.69,9.69,0,0,0-.76-4.15,4.57,4.57,0,0,0-4.53-2.63,9.16,9.16,0,0,0-2.73.34,7.67,7.67,0,0,0-4.91,5.19,19.53,19.53,0,0,0-.35,4.24v14.74H776Z"/>
        <path class="cls-3" d="M807.86,156.74q1.64-2.42,6.33-2.42l.91,0,1.07.08v4.31l-1.07-.07h-.62q-2.16,0-2.58,1.12a22.13,22.13,0,0,0-.42,5.69h4.69v3.73h-4.69v24.27h-4.64V169.19H803v-3.73h3.88V161A8.48,8.48,0,0,1,807.86,156.74Z"/>
        <path class="cls-3" d="M850.28,165.33h4.45v4.86a10.71,10.71,0,0,1,2.68-3.45,6.93,6.93,0,0,1,4.92-2l.44,0,1.07.11v5a7.06,7.06,0,0,0-.77-.11l-.77,0a6.66,6.66,0,0,0-5.44,2.3,8.06,8.06,0,0,0-1.9,5.29v16.18h-4.69Z"/>
        <path class="cls-3" d="M867.92,165.33h4.64v4a15.61,15.61,0,0,1,3-3,9,9,0,0,1,5.26-1.6,8.23,8.23,0,0,1,5.37,1.65,8.67,8.67,0,0,1,2.08,2.78,9.68,9.68,0,0,1,8.41-4.44q5.63,0,7.66,4.1a13.5,13.5,0,0,1,1.09,5.94v18.73h-4.87V173.92q0-2.81-1.39-3.86a5.49,5.49,0,0,0-3.4-1.05,6.71,6.71,0,0,0-4.75,1.87q-2,1.87-2,6.23v16.37h-4.77V175.1a9.64,9.64,0,0,0-.68-4.18q-1.07-2-4-2a6.85,6.85,0,0,0-4.83,2.08q-2.17,2.08-2.17,7.51v14.92h-4.69Z"/>
        <path class="cls-3" d="M927.3,176.43a2.54,2.54,0,0,0,2.16-1.36,4.22,4.22,0,0,0,.31-1.82,3.87,3.87,0,0,0-1.7-3.52,9,9,0,0,0-4.87-1.09q-3.66,0-5.2,2a6.7,6.7,0,0,0-1.12,3.3H912.5q.13-5.22,3.34-7.26a13.59,13.59,0,0,1,7.45-2,15,15,0,0,1,8,1.89,6.44,6.44,0,0,1,3,5.88v16.21a2.09,2.09,0,0,0,.3,1.18,1.44,1.44,0,0,0,1.26.45q.31,0,.7,0c.26,0,.54-.07.83-.12v3.49a13,13,0,0,1-1.67.39,12.1,12.1,0,0,1-1.56.08,3.85,3.85,0,0,1-3.52-1.73,6.71,6.71,0,0,1-.81-2.6,12,12,0,0,1-4.12,3.28,12.65,12.65,0,0,1-5.91,1.39,8.76,8.76,0,0,1-6.34-2.37,7.91,7.91,0,0,1-2.46-5.94,7.68,7.68,0,0,1,2.42-6.06,11.49,11.49,0,0,1,6.35-2.65Zm-9.87,12.77a5.48,5.48,0,0,0,3.52,1.18,10.64,10.64,0,0,0,4.79-1.15,6.5,6.5,0,0,0,3.91-6.27v-3.8a8,8,0,0,1-2.21.92,18.28,18.28,0,0,1-2.65.53l-2.83.37a10.87,10.87,0,0,0-3.83,1.08,4.19,4.19,0,0,0-2.17,3.93A3.9,3.9,0,0,0,917.43,189.21Z"/>
        <path class="cls-3" d="M960.44,166.82q3,2.31,3.56,8h-4.56a8.53,8.53,0,0,0-1.9-4.32q-1.48-1.72-4.77-1.72-4.48,0-6.41,4.41a17.62,17.62,0,0,0-1.25,7.06,13.35,13.35,0,0,0,1.77,7.11,6.84,6.84,0,0,0,10.2,1.09,9.88,9.88,0,0,0,2.36-4.91H964q-.78,5.6-3.91,8.18a12.12,12.12,0,0,1-8,2.59,10.63,10.63,0,0,1-8.73-4,15.52,15.52,0,0,1-3.26-10.07q0-7.41,3.57-11.53a11.49,11.49,0,0,1,9.09-4.12A12.09,12.09,0,0,1,960.44,166.82Z"/>
        <path class="cls-3" d="M968.68,154.87h4.77v5.36h-4.77Zm0,10.59h4.77v28h-4.77Z"/>
        <polygon class="cls-3" points="997.23 154 991.45 154 986.68 161.6 990.27 161.6 997.23 154"/>
        <path class="cls-3" d="M1010.2,165.33h4.45v4a12.53,12.53,0,0,1,4.19-3.55,11.1,11.1,0,0,1,4.92-1.08q5.94,0,8,4.18a14.93,14.93,0,0,1,1.15,6.54v18h-4.77V175.73a9.67,9.67,0,0,0-.76-4.15,4.57,4.57,0,0,0-4.53-2.63,9.18,9.18,0,0,0-2.73.34,7.67,7.67,0,0,0-4.91,5.19,19.53,19.53,0,0,0-.35,4.24v14.74h-4.69Z"/>
        <path class="cls-3" d="M1055.18,154.87h7.42l11,32.63,10.92-32.63h7.37v38.59H1087V170.69q0-1.18.05-3.91t.05-5.86l-10.92,32.55H1071l-11-32.55v1.18q0,1.42.08,4.32t.08,4.27v22.78h-4.95Z"/>
        <path class="cls-3" d="M1099.12,154.87h4.77v5.36h-4.77Zm0,10.59h4.77v28h-4.77Z"/>
        <path class="cls-3" d="M1113.75,184.63a6.81,6.81,0,0,0,1.2,3.63q1.81,2.29,6.27,2.29a9.34,9.34,0,0,0,4.68-1.14,3.79,3.79,0,0,0,2-3.53,3,3,0,0,0-1.61-2.76,19.36,19.36,0,0,0-4.08-1.34l-3.79-.95a18.55,18.55,0,0,1-5.35-2,6,6,0,0,1-3.07-5.31,8.09,8.09,0,0,1,2.89-6.46,11.56,11.56,0,0,1,7.77-2.47q6.39,0,9.21,3.73a8.07,8.07,0,0,1,1.72,5.1h-4.43a5.38,5.38,0,0,0-1.15-2.9q-1.65-1.85-5.73-1.85a7,7,0,0,0-4.12,1,3.18,3.18,0,0,0-1.4,2.7,3.31,3.31,0,0,0,1.84,2.93,11.09,11.09,0,0,0,3.13,1.15l3.16.76a24.62,24.62,0,0,1,6.9,2.39,6.35,6.35,0,0,1,2.73,5.7,8.67,8.67,0,0,1-2.86,6.49q-2.86,2.73-8.72,2.73-6.3,0-8.92-2.85a10.75,10.75,0,0,1-2.81-7.05Z"/>
        <path class="cls-3" d="M1137.64,154.87h4.77v5.36h-4.77Zm0,10.59h4.77v28h-4.77Z"/>
        <path class="cls-3" d="M1179.15,165.33h4.45v4a12.53,12.53,0,0,1,4.19-3.55,11.1,11.1,0,0,1,4.92-1.08q5.94,0,8,4.18a14.93,14.93,0,0,1,1.15,6.54v18h-4.77V175.73a9.67,9.67,0,0,0-.76-4.15,4.57,4.57,0,0,0-4.53-2.63,9.18,9.18,0,0,0-2.73.34,7.67,7.67,0,0,0-4.91,5.19,19.53,19.53,0,0,0-.35,4.24v14.74h-4.69Z"/>
        <path class="cls-3" d="M1223.77,176.43a2.54,2.54,0,0,0,2.16-1.36,4.22,4.22,0,0,0,.31-1.82,3.87,3.87,0,0,0-1.7-3.52,9,9,0,0,0-4.87-1.09q-3.66,0-5.2,2a6.66,6.66,0,0,0-1.12,3.3H1209q.13-5.22,3.34-7.26a13.59,13.59,0,0,1,7.45-2,15,15,0,0,1,8,1.89,6.43,6.43,0,0,1,3,5.88v16.21a2.09,2.09,0,0,0,.3,1.18,1.44,1.44,0,0,0,1.26.45q.31,0,.7,0c.26,0,.54-.07.83-.12v3.49a13,13,0,0,1-1.67.39,12.07,12.07,0,0,1-1.56.08,3.85,3.85,0,0,1-3.52-1.73,6.74,6.74,0,0,1-.81-2.6,11.94,11.94,0,0,1-4.12,3.28,12.64,12.64,0,0,1-5.91,1.39A8.76,8.76,0,0,1,1210,192a7.91,7.91,0,0,1-2.46-5.94,7.68,7.68,0,0,1,2.42-6.06,11.49,11.49,0,0,1,6.35-2.65Zm-9.87,12.77a5.48,5.48,0,0,0,3.52,1.18,10.63,10.63,0,0,0,4.79-1.15,6.5,6.5,0,0,0,3.91-6.27v-3.8a7.92,7.92,0,0,1-2.21.92,18.28,18.28,0,0,1-2.65.53l-2.83.37a10.86,10.86,0,0,0-3.83,1.08,4.19,4.19,0,0,0-2.17,3.93A3.9,3.9,0,0,0,1213.9,189.21Z"/>
        <path class="cls-3" d="M1238.61,154.87h4.69v38.59h-4.69Z"/>
        <path class="cls-4" d="M102,184.38a4.94,4.94,0,0,1,2.36-6.73l10.9-4.93a3.41,3.41,0,0,1,4.35,1.51,17.68,17.68,0,0,0,3.26,4.81c2.86,2,5.28,1.92,9.51,1.92,3.16,0,4.82,0,8.16-.24,2.76-.17,3.53-1.47,3.53-3.6s-.28-4.49-1.9-6.08-8.42-1.36-15-2.25c-9.89-1.34-15.52-5.34-19.65-9.28s-5.71-11.19-5.71-17.29c0-4,1.84-8,4-11.59a21.66,21.66,0,0,1,9.61-8.41q6.41-3.06,17.59-3.06c9.14,0,15.46.14,20.26,3.84,3.75,2.9,8.41,6.7,10.7,12.09a4.69,4.69,0,0,1-2.79,6.27l-11.31,3.84a4.87,4.87,0,0,1-6-2.76,7.74,7.74,0,0,0-2-2.79c-1.77-1.6-6.08-2.12-9.2-2.12-2.57,0-6.25.54-7.55,1.72a5.66,5.66,0,0,0-2,4.34,4.48,4.48,0,0,0,1.61,3.35c1,1,4.63,1.76,9.55,2.48,10.09,1.61,15.52,1.91,19.7,4.23a17.76,17.76,0,0,1,7.89,7.92,23.48,23.48,0,0,1,2.85,11.55A26.37,26.37,0,0,1,161.05,187a24.41,24.41,0,0,1-10.64,9.6q-6.83,3.28-17.22,3.27c-12.16,0-20.22-2.93-25.27-7.66A24.94,24.94,0,0,1,102,184.38Z"/>
        <path class="cls-4" d="M174.56,120.5h20.66v78H174.56Z"/>
        <path class="cls-4" d="M206.21,120.5h17.24a5,5,0,0,1,4.43,2.74l17.66,34.84,16.74-34.75a5,5,0,0,1,4.48-2.83h17.68v73a5,5,0,0,1-5,5H269a5,5,0,0,1-5-5.42c-.85-14.46.92-28.8,3.39-43.34L254.72,180.4a4.81,4.81,0,0,1-4.44,3h-10a4.81,4.81,0,0,1-4.43-3l-12.53-29.71c1.43,11.37,5.08,24.82,3.8,42.32a5,5,0,0,1-5,5.48h-11a5,5,0,0,1-5-5Z"/>
        <path class="cls-3" d="M328.57,200.57h-6a25.54,25.54,0,0,1-25.72-25.3V143.73a25.54,25.54,0,0,1,25.72-25.3h6a25.54,25.54,0,0,1,25.72,25.3v31.54A25.54,25.54,0,0,1,328.57,200.57Zm-6-76.52a19.86,19.86,0,0,0-20,19.68v31.54a19.86,19.86,0,0,0,20,19.68h6a19.86,19.86,0,0,0,20-19.68V143.73a19.86,19.86,0,0,0-20-19.68Z"/>
        <polygon class="cls-3" points="422.12 199.04 374.93 131.81 374.93 197.37 369.21 197.37 369.21 120.83 374.4 121.09 421.6 188.31 421.6 120.52 427.31 120.52 427.31 199.04 422.12 199.04"/>
        <path class="cls-5" d="M322.76,167.8l-1.4,47.53a1.3,1.3,0,0,0,2.19,1l8.34-8a1.3,1.3,0,0,1,2.12.5l7.11,19.6a1.3,1.3,0,0,0,1.7.77L353,225.11a1.32,1.32,0,0,0,.69-1.78L345,204.77a1.31,1.31,0,0,1,1.23-1.87l10.49.42a1.31,1.31,0,0,0,1-2.22L325,166.93A1.3,1.3,0,0,0,322.76,167.8Z"/>
        <line class="cls-6" x1="306.19" y1="181.84" x2="315.95" y2="176.32"/>
        <line class="cls-6" x1="307.14" y1="164.31" x2="315.95" y2="169.35"/>
        <line class="cls-6" x1="319.28" y1="153.9" x2="322.29" y2="163.06"/>
        <line class="cls-6" x1="330.71" y1="163.59" x2="335.95" y2="154.46"/>
        <line class="cls-6" x1="336.19" y1="169.35" x2="345.72" y2="165.51"/>
        <path class="cls-3" d="M991.58,194.75c-3.83,0-12.75-1.48-12.75-15.17,0-10.59,6.4-15.33,12.75-15.33,7.93,0,12.67,5.76,12.67,15.42C1004.25,188.55,999,194.75,991.58,194.75Zm0-26c-5,0-8.25,4.25-8.25,10.83,0,7.08,2.78,10.67,8.25,10.67,4.88,0,8.17-4.25,8.17-10.58C999.75,172.42,997,168.75,991.58,168.75Z"/>
        <path class="cls-3" d="M1161.58,194.75c-3.83,0-12.75-1.48-12.75-15.17,0-10.59,6.4-15.33,12.75-15.33,7.93,0,12.67,5.76,12.67,15.42C1174.25,188.55,1169,194.75,1161.58,194.75Zm0-26c-5,0-8.25,4.25-8.25,10.83,0,7.08,2.78,10.67,8.25,10.67,4.88,0,8.17-4.25,8.17-10.58C1169.75,172.42,1167,168.75,1161.58,168.75Z"/>
        <path class="cls-3" d="M832.25,194.75c-3.83,0-12.75-1.48-12.75-15.17,0-10.59,6.4-15.33,12.75-15.33,7.93,0,12.67,5.76,12.67,15.42C844.92,188.55,839.71,194.75,832.25,194.75Zm0-26c-5,0-8.25,4.25-8.25,10.83,0,7.08,2.78,10.67,8.25,10.67,4.88,0,8.17-4.25,8.17-10.58C840.42,172.42,837.67,168.75,832.25,168.75Z"/>
    </g>
    <g id="cuadroSuperior">
        <path class="cls-4" d="M396.5-4.33l10.12,84.42a21.48,21.48,0,0,0,20.74,18.73l795.19,20.82a21.48,21.48,0,0,0,21.95-19.45L1254-5.41Z"/>
    </g>
</svg>